<svg xmlns="http://www.w3.org/2000/svg" viewBox="0 0 960 720" role="img" aria-labelledby="title desc">
  <title id="title">AI-enabled closed-loop noninvasive BCI platform</title>
  <desc id="desc">Closed-loop neural recording, AI decoder and controller, and neural stimulation around a noninvasive neural interface cap.</desc>
  <defs>
    <linearGradient id="bg" x1="0" y1="0" x2="1" y2="1"><stop offset="0" stop-color="#ffffff"/><stop offset="1" stop-color="#eef5ff"/></linearGradient>
    <linearGradient id="blue" x1="0" y1="0" x2="1" y2="1"><stop offset="0" stop-color="#4c6cf0"/><stop offset="1" stop-color="#253eaa"/></linearGradient>
    <linearGradient id="cap" x1="0" y1="0" x2="1" y2="1"><stop offset="0" stop-color="#dce8ff"/><stop offset="1" stop-color="#6e8ed7"/></linearGradient>
    <filter id="shadow" x="-20%" y="-20%" width="140%" height="140%"><feDropShadow dx="0" dy="12" stdDeviation="18" flood-color="#153c8c" flood-opacity="0.12"/></filter>
    <marker id="arrow" viewBox="0 0 10 10" refX="8" refY="5" markerWidth="7" markerHeight="7" orient="auto-start-reverse"><path d="M 0 0 L 10 5 L 0 10 z" fill="#4767d8"/></marker>
  </defs>
  <rect width="960" height="720" rx="42" fill="url(#bg)"/>
  <g opacity="0.32" stroke="#d6e2fb" stroke-width="1">
    <path d="M80 80h800M80 160h800M80 240h800M80 320h800M80 400h800M80 480h800M80 560h800M80 640h800"/>
    <path d="M120 50v620M220 50v620M320 50v620M420 50v620M520 50v620M620 50v620M720 50v620M820 50v620"/>
  </g>
  <path d="M202 268c35-88 134-150 250-150 108 0 201 54 241 133" fill="none" stroke="#4767d8" stroke-width="8" marker-end="url(#arrow)" opacity="0.92"/>
  <path d="M700 448c-37 83-134 140-247 140-112 0-209-57-247-140" fill="none" stroke="#4767d8" stroke-width="8" marker-end="url(#arrow)" opacity="0.92"/>
  <g filter="url(#shadow)">
    <rect x="352" y="70" width="256" height="92" rx="20" fill="#fff" stroke="#c7d6fb" stroke-width="2"/>
    <path d="M410 118c0-24 15-38 35-38 15 0 27 7 35 20 8-13 20-20 35-20 20 0 35 14 35 38s-15 38-35 38c-15 0-27-7-35-20-8 13-20 20-35 20-20 0-35-14-35-38z" fill="none" stroke="#3f5bd2" stroke-width="5"/>
    <path d="M480 88v60M444 118h72M458 98v40M502 98v40" stroke="#3f5bd2" stroke-width="4" stroke-linecap="round"/>
    <text x="526" y="110" font-family="Inter, Arial, sans-serif" font-size="22" font-weight="800" fill="#102167">AI Decoder &amp;</text>
    <text x="526" y="138" font-family="Inter, Arial, sans-serif" font-size="22" font-weight="800" fill="#102167">Controller</text>
  </g>
  <g filter="url(#shadow)">
    <rect x="74" y="292" width="224" height="98" rx="20" fill="#fff" stroke="#c7d6fb" stroke-width="2"/>
    <path d="M102 342h22l15-32 19 64 17-46 15 24h27" fill="none" stroke="#3f5bd2" stroke-width="5" stroke-linecap="round" stroke-linejoin="round"/>
    <text x="160" y="332" font-family="Inter, Arial, sans-serif" font-size="22" font-weight="800" fill="#102167">Neural</text>
    <text x="160" y="360" font-family="Inter, Arial, sans-serif" font-size="22" font-weight="800" fill="#102167">Recording</text>
  </g>
  <g filter="url(#shadow)">
    <rect x="648" y="292" width="236" height="98" rx="20" fill="#fff" stroke="#c7d6fb" stroke-width="2"/>
    <circle cx="705" cy="341" r="26" fill="none" stroke="#9fb4ff" stroke-width="4"/>
    <path d="M676 342h17l13-25 15 50 13-35 10 18h22" fill="none" stroke="#3f5bd2" stroke-width="4" stroke-linecap="round" stroke-linejoin="round"/>
    <text x="748" y="332" font-family="Inter, Arial, sans-serif" font-size="22" font-weight="800" fill="#102167">Neural</text>
    <text x="748" y="360" font-family="Inter, Arial, sans-serif" font-size="22" font-weight="800" fill="#102167">Stimulation</text>
  </g>
  <g transform="translate(312 255)">
    <path d="M154 60c-96 0-165 75-165 173 0 77 43 126 91 143v96h174v-214c56-13 93-62 93-118 0-83-80-140-193-140z" fill="#f4f8ff" stroke="#c2d2fa" stroke-width="2"/>
    <path d="M133 50c114-6 199 46 199 124 0 22-7 42-20 59-35 0-103-8-173-43-41-21-75-45-101-69 21-41 54-65 95-71z" fill="url(#cap)" opacity="0.95"/>
    <ellipse cx="209" cy="62" rx="54" ry="16" fill="#eef5ff" stroke="#9fb4ff" stroke-width="3"/>
    <rect x="164" y="31" width="92" height="42" rx="17" fill="#fff" stroke="#c7d6fb" stroke-width="2"/>
    <g stroke="#d8e4ff" stroke-width="3" fill="none">
      <path d="M92 102c70 8 143 37 218 96"/><path d="M82 144c70 3 146 29 228 84"/><path d="M118 68c64 34 115 86 151 157"/><path d="M187 58c38 50 63 110 73 180"/><path d="M255 80c18 52 22 106 12 162"/>
    </g>
    <g fill="#f9fbff" stroke="#5f7ee3" stroke-width="5">
      <circle cx="90" cy="126" r="14"/><circle cx="145" cy="145" r="14"/><circle cx="202" cy="162" r="14"/><circle cx="258" cy="175" r="14"/><circle cx="303" cy="194" r="14"/><circle cx="172" cy="222" r="14"/><circle cx="247" cy="242" r="14"/>
    </g>
  </g>
  <text x="480" y="660" text-anchor="middle" font-family="Inter, Arial, sans-serif" font-size="24" letter-spacing="2" font-weight="900" fill="#102167">CLOSED-LOOP AI NONINVASIVE BCI</text>
</svg>
